# xmcd
#
# Track frame offsets:
#	150
#	4248
#	7284
#	12708
#	16575
#	19809
#	23880
#	27738
#	31965
#	35432
#	39261
#	43458
#	48129
#	52899
#	56508
#	60280
#	64182
#	67752
#	71845
#	75930
#	79821
#	84021
#	89538
#	93212
#	97506
#	102447
#	108615
#	112268
#	116569
#	120483
#	124015
#	127923
#	134175
#	138332
#	141777
#	145121
#	148356
#	152679
#	156276
#	160530
#	164562
#	168350
#	172616
#	176022
#	179772
#	183305
#	187137
#	190928
#	195612
#	199210
#	204245
#	206980
#	210135
#	212229
#	215477
#	217561
#	218966
#	220743
#	222775
#
# Disc length: 2989 seconds
#
# Revision: 1
# Processed by: cddbd v1.5.1PL0 Copyright (c) Steve Scherf et al.
# Submitted via: CDex 1.50Beta5
#
DISCID=500bab3b
DTITLE=スティーブ・ソレイシィ - 英会話なるほど練習帳
DYEAR=1900
DGENRE=Books
TTITLE0=はい、…をどうぞ
TTITLE1=どうぞ、どうぞ、…してください
TTITLE2=ほとんどすべての…
TTITLE3=（私、）まだ…でない
TTITLE4=…はだいじょうぶ
TTITLE5=…していただけますか？
TTITLE6=…できますか？
TTITLE7=私はちょっと…です
TTITLE8=…でいなさい／…にいなさい
TTITLE9=…しないでください
TTITLE10=それは…のムダ／…なんてもったいねい
TTITLE11=…かどうかによるね／…かどか様子をみよう
TTITLE12=私…してもいい？
TTITLE13=…がいいのですが／ほしいのですが
TTITLE14=…したいのですが
TTITLE15=…してごめんなさい
TTITLE16=…をありがとう
TTITLE17=…をいただけますか？
TTITLE18=…ですよね？
TTITLE19=話のきっかけづくりに、「…ですよね？」
TTITLE20=なぜですか
TTITLE21=そうですねぇ…
TTITLE22=…はどうだった？
TTITLE23=…はどうですか？
TTITLE24=私は〜だけど、じゃあ、…は？
TTITLE25=…はどうなってるの？／…はどうなるの？
TTITLE26=…について教えて
TTITLE27=…を教えていただけますか？
TTITLE28=それって…じゃない？
TTITLE29=それって…そうだ
TTITLE30=それって本当に…じゃない？
TTITLE31=順序だててうまく説明する方法
TTITLE32=…の気分じゃないなぁ
TTITLE33=…は何歳（何年もの）ですか？
TTITLE34=…はどうしたの？／…はこわれているの？
TTITLE35=…ちょうだい／ほしいなぁ
TTITLE36=…しなくっちゃ
TTITLE37=…しないとダメだ
TTITLE38=…しなくていい
TTITLE39=…しなくちゃだめ？
TTITLE40=いつ…しないといけないの？
TTITLE41=…かどうかわからない
TTITLE42=じゃあ、（…に）またね
TTITLE43=…するのはどう？
TTITLE44=…しようか？
TTITLE45=何を…すればいい？
TTITLE46=（疑問詞+）…すればいい？
TTITLE47=…するつもりだった／…するはずだった
TTITLE48=…を気にしないで
TTITLE49=…でうらやましい
TTITLE50=Bonus Lesson 1 「やめて！」制止・禁止の表現 TOP 10
TTITLE51=Bonus Lesson 2 「お願いします」依頼の表現 TOP 7
TTITLE52=Bonus Lesson 3 「こんにちは」出会いの表現 10 Steps
TTITLE53=Bonus Lesson 4 「…したら？／…しなくちゃ」Need To/Have To などの使い方 総まとめ
TTITLE54=Bonus Lesson 5 「どういたしまして」お礼に対するレスポンス TOP 10
TTITLE55=Coffee Break 1 Steveの巻 0:18 スティーブ・ソレイシィ 英会話なるほど練習帳
TTITLE56=Coffee Break 2 Robinの巻 0:23 スティーブ・ソレイシィ 英会話なるほど練習帳
TTITLE57=Coffee Break 3 Sashaの巻 0:27 スティーブ・ソレイシィ 英会話なるほど練習帳
TTITLE58=Coffee Break 4 最後にもう一度、Steveの巻 0:19 スティーブ・ソレイシィ
EXTD=
EXTT0=
EXTT1=
EXTT2=
EXTT3=
EXTT4=
EXTT5=
EXTT6=
EXTT7=
EXTT8=
EXTT9=
EXTT10=
EXTT11=
EXTT12=
EXTT13=
EXTT14=
EXTT15=
EXTT16=
EXTT17=
EXTT18=
EXTT19=
EXTT20=
EXTT21=
EXTT22=
EXTT23=
EXTT24=
EXTT25=
EXTT26=
EXTT27=
EXTT28=
EXTT29=
EXTT30=
EXTT31=
EXTT32=
EXTT33=
EXTT34=
EXTT35=
EXTT36=
EXTT37=
EXTT38=
EXTT39=
EXTT40=
EXTT41=
EXTT42=
EXTT43=
EXTT44=
EXTT45=
EXTT46=
EXTT47=
EXTT48=
EXTT49=
EXTT50=
EXTT51=
EXTT52=
EXTT53=
EXTT54=
EXTT55=
EXTT56=
EXTT57=
EXTT58=
PLAYORDER=
